<mxfile host="app.diagrams.net" modified="2024-02-18T13:35:45.170Z" agent="Mozilla/5.0 (Windows NT 10.0; Win64; x64) AppleWebKit/537.36 (KHTML, like Gecko) Chrome/121.0.0.0 Safari/537.36" etag="CO729BrCJjL5QQD8ARpZ" version="23.1.5" type="github">
  <diagram name="Page-1" id="BX7abx8oXZO5qlqMeqmp">
    <mxGraphModel dx="2409" dy="1186" grid="1" gridSize="10" guides="1" tooltips="1" connect="1" arrows="1" fold="1" page="1" pageScale="1" pageWidth="827" pageHeight="1169" math="0" shadow="0">
      <root>
        <mxCell id="0" />
        <mxCell id="1" parent="0" />
        <object label="&lt;font style=&quot;font-size: 24px;&quot;&gt;personne&lt;/font&gt;&lt;div&gt;&lt;br&gt;&lt;/div&gt;" personne="personne&#xa;" id="0Z9W9yyYqLDDxR3RSJYj-1">
          <mxCell style="shape=umlActor;verticalLabelPosition=bottom;verticalAlign=top;html=1;" vertex="1" parent="1">
            <mxGeometry x="-30" y="40" width="100" height="140" as="geometry" />
          </mxCell>
        </object>
        <mxCell id="0Z9W9yyYqLDDxR3RSJYj-2" value="user" style="shape=umlActor;verticalLabelPosition=bottom;verticalAlign=top;html=1;" vertex="1" parent="1">
          <mxGeometry x="160" y="220" width="30" height="70" as="geometry" />
        </mxCell>
        <mxCell id="0Z9W9yyYqLDDxR3RSJYj-3" value="" style="ellipse;whiteSpace=wrap;html=1;" vertex="1" parent="1">
          <mxGeometry x="220" y="30" width="230" height="80" as="geometry" />
        </mxCell>
        <mxCell id="0Z9W9yyYqLDDxR3RSJYj-4" value="" style="ellipse;whiteSpace=wrap;html=1;" vertex="1" parent="1">
          <mxGeometry x="580" y="170" width="360" height="80" as="geometry" />
        </mxCell>
        <mxCell id="0Z9W9yyYqLDDxR3RSJYj-5" value="" style="ellipse;whiteSpace=wrap;html=1;" vertex="1" parent="1">
          <mxGeometry x="580" y="290" width="380" height="80" as="geometry" />
        </mxCell>
        <mxCell id="0Z9W9yyYqLDDxR3RSJYj-6" value="" style="ellipse;whiteSpace=wrap;html=1;" vertex="1" parent="1">
          <mxGeometry x="580" y="400" width="400" height="80" as="geometry" />
        </mxCell>
        <mxCell id="0Z9W9yyYqLDDxR3RSJYj-7" value="" style="ellipse;whiteSpace=wrap;html=1;" vertex="1" parent="1">
          <mxGeometry x="580" y="490" width="390" height="80" as="geometry" />
        </mxCell>
        <mxCell id="0Z9W9yyYqLDDxR3RSJYj-8" value="&lt;font style=&quot;font-size: 24px;&quot;&gt;admin&lt;/font&gt;&lt;div&gt;&lt;br&gt;&lt;/div&gt;" style="shape=umlActor;verticalLabelPosition=bottom;verticalAlign=top;html=1;outlineConnect=0;" vertex="1" parent="1">
          <mxGeometry x="40" y="830" width="30" height="60" as="geometry" />
        </mxCell>
        <mxCell id="0Z9W9yyYqLDDxR3RSJYj-9" value="" style="ellipse;whiteSpace=wrap;html=1;" vertex="1" parent="1">
          <mxGeometry x="280" y="700" width="240" height="80" as="geometry" />
        </mxCell>
        <mxCell id="0Z9W9yyYqLDDxR3RSJYj-10" value="&lt;font style=&quot;font-size: 18px;&quot;&gt;gerer BD&lt;/font&gt;" style="ellipse;whiteSpace=wrap;html=1;" vertex="1" parent="1">
          <mxGeometry x="390" y="810" width="320" height="80" as="geometry" />
        </mxCell>
        <mxCell id="0Z9W9yyYqLDDxR3RSJYj-13" value="" style="ellipse;whiteSpace=wrap;html=1;" vertex="1" parent="1">
          <mxGeometry x="190" y="1030" width="120" height="80" as="geometry" />
        </mxCell>
        <mxCell id="0Z9W9yyYqLDDxR3RSJYj-15" value="" style="ellipse;whiteSpace=wrap;html=1;" vertex="1" parent="1">
          <mxGeometry x="480" y="1030" width="120" height="80" as="geometry" />
        </mxCell>
        <mxCell id="0Z9W9yyYqLDDxR3RSJYj-16" value="" style="ellipse;whiteSpace=wrap;html=1;" vertex="1" parent="1">
          <mxGeometry x="750" y="1030" width="120" height="80" as="geometry" />
        </mxCell>
        <mxCell id="0Z9W9yyYqLDDxR3RSJYj-17" value="&lt;font style=&quot;font-size: 18px;&quot;&gt;habillement&lt;/font&gt;" style="ellipse;whiteSpace=wrap;html=1;" vertex="1" parent="1">
          <mxGeometry x="1060" y="1020" width="240" height="80" as="geometry" />
        </mxCell>
        <mxCell id="0Z9W9yyYqLDDxR3RSJYj-19" value="" style="ellipse;whiteSpace=wrap;html=1;" vertex="1" parent="1">
          <mxGeometry x="490" y="630" width="120" height="80" as="geometry" />
        </mxCell>
        <mxCell id="0Z9W9yyYqLDDxR3RSJYj-20" value="" style="ellipse;whiteSpace=wrap;html=1;" vertex="1" parent="1">
          <mxGeometry x="730" y="630" width="120" height="80" as="geometry" />
        </mxCell>
        <mxCell id="0Z9W9yyYqLDDxR3RSJYj-30" value="" style="edgeStyle=elbowEdgeStyle;elbow=vertical;endArrow=classic;html=1;curved=0;rounded=0;endSize=8;startSize=8;entryX=0;entryY=1;entryDx=0;entryDy=0;" edge="1" parent="1" target="0Z9W9yyYqLDDxR3RSJYj-10">
          <mxGeometry width="50" height="50" relative="1" as="geometry">
            <mxPoint x="245" y="1030" as="sourcePoint" />
            <mxPoint x="334.98" y="769.6" as="targetPoint" />
            <Array as="points">
              <mxPoint x="330" y="940" />
              <mxPoint x="300" y="980" />
            </Array>
          </mxGeometry>
        </mxCell>
        <mxCell id="0Z9W9yyYqLDDxR3RSJYj-33" value="" style="edgeStyle=elbowEdgeStyle;elbow=vertical;endArrow=classic;html=1;curved=0;rounded=0;endSize=8;startSize=8;entryX=0.5;entryY=1;entryDx=0;entryDy=0;" edge="1" parent="1" target="0Z9W9yyYqLDDxR3RSJYj-10">
          <mxGeometry width="50" height="50" relative="1" as="geometry">
            <mxPoint x="550" y="1030" as="sourcePoint" />
            <mxPoint x="490" y="900" as="targetPoint" />
            <Array as="points">
              <mxPoint x="540" y="970" />
            </Array>
          </mxGeometry>
        </mxCell>
        <mxCell id="0Z9W9yyYqLDDxR3RSJYj-34" value="" style="edgeStyle=elbowEdgeStyle;elbow=vertical;endArrow=classic;html=1;curved=0;rounded=0;endSize=8;startSize=8;exitX=0.311;exitY=0.09;exitDx=0;exitDy=0;entryX=0.961;entryY=0.75;entryDx=0;entryDy=0;entryPerimeter=0;exitPerimeter=0;" edge="1" parent="1" source="0Z9W9yyYqLDDxR3RSJYj-16" target="0Z9W9yyYqLDDxR3RSJYj-10">
          <mxGeometry width="50" height="50" relative="1" as="geometry">
            <mxPoint x="640" y="820" as="sourcePoint" />
            <mxPoint x="690" y="770" as="targetPoint" />
            <Array as="points">
              <mxPoint x="698" y="950" />
            </Array>
          </mxGeometry>
        </mxCell>
        <mxCell id="0Z9W9yyYqLDDxR3RSJYj-36" value="" style="edgeStyle=elbowEdgeStyle;elbow=horizontal;endArrow=classic;html=1;curved=0;rounded=0;endSize=8;startSize=8;exitX=0.4;exitY=0.025;exitDx=0;exitDy=0;exitPerimeter=0;entryX=1;entryY=0.5;entryDx=0;entryDy=0;" edge="1" parent="1" source="0Z9W9yyYqLDDxR3RSJYj-17" target="0Z9W9yyYqLDDxR3RSJYj-10">
          <mxGeometry width="50" height="50" relative="1" as="geometry">
            <mxPoint x="910.04" y="1000" as="sourcePoint" />
            <mxPoint x="520" y="840" as="targetPoint" />
            <Array as="points">
              <mxPoint x="830" y="920" />
              <mxPoint x="820" y="920" />
              <mxPoint x="770" y="830" />
            </Array>
          </mxGeometry>
        </mxCell>
        <mxCell id="0Z9W9yyYqLDDxR3RSJYj-44" value="" style="edgeStyle=elbowEdgeStyle;elbow=vertical;endArrow=classic;html=1;curved=0;rounded=0;endSize=8;startSize=8;entryX=0.395;entryY=0.952;entryDx=0;entryDy=0;entryPerimeter=0;exitX=0.5;exitY=0;exitDx=0;exitDy=0;" edge="1" parent="1" source="0Z9W9yyYqLDDxR3RSJYj-19" target="0Z9W9yyYqLDDxR3RSJYj-7">
          <mxGeometry width="50" height="50" relative="1" as="geometry">
            <mxPoint x="510" y="610" as="sourcePoint" />
            <mxPoint x="690" y="510" as="targetPoint" />
          </mxGeometry>
        </mxCell>
        <mxCell id="0Z9W9yyYqLDDxR3RSJYj-47" value="" style="edgeStyle=elbowEdgeStyle;elbow=vertical;endArrow=classic;html=1;curved=0;rounded=0;endSize=8;startSize=8;exitX=0.5;exitY=0;exitDx=0;exitDy=0;entryX=0.541;entryY=0.96;entryDx=0;entryDy=0;entryPerimeter=0;" edge="1" parent="1" source="0Z9W9yyYqLDDxR3RSJYj-20" target="0Z9W9yyYqLDDxR3RSJYj-7">
          <mxGeometry width="50" height="50" relative="1" as="geometry">
            <mxPoint x="640" y="560" as="sourcePoint" />
            <mxPoint x="690" y="510" as="targetPoint" />
          </mxGeometry>
        </mxCell>
        <mxCell id="0Z9W9yyYqLDDxR3RSJYj-48" value="&lt;font style=&quot;font-size: 24px;&quot;&gt;sysyteme de recommandation&lt;/font&gt;" style="sketch=0;points=[[0,0,0],[0.25,0,0],[0.5,0,0],[0.75,0,0],[1,0,0],[0,1,0],[0.25,1,0],[0.5,1,0],[0.75,1,0],[1,1,0],[0,0.25,0],[0,0.5,0],[0,0.75,0],[1,0.25,0],[1,0.5,0],[1,0.75,0]];points=[[0,0,0],[0.25,0,0],[0.5,0,0],[0.75,0,0],[1,0,0],[0,1,0],[0.25,1,0],[0.5,1,0],[0.75,1,0],[1,1,0],[0,0.25,0],[0,0.5,0],[0,0.75,0],[1,0.25,0],[1,0.5,0],[1,0.75,0]];outlineConnect=0;fontColor=#232F3E;fillColor=#E7157B;strokeColor=#ffffff;dashed=0;verticalLabelPosition=bottom;verticalAlign=top;align=center;html=1;fontSize=12;fontStyle=0;aspect=fixed;shape=mxgraph.aws4.resourceIcon;resIcon=mxgraph.aws4.systems_manager;" vertex="1" parent="1">
          <mxGeometry x="1290" y="680" width="150" height="150" as="geometry" />
        </mxCell>
        <mxCell id="0Z9W9yyYqLDDxR3RSJYj-49" value="" style="ellipse;whiteSpace=wrap;html=1;" vertex="1" parent="1">
          <mxGeometry x="940" y="620" width="120" height="80" as="geometry" />
        </mxCell>
        <mxCell id="0Z9W9yyYqLDDxR3RSJYj-50" value="&amp;lt;&amp;lt;include&amp;gt;&amp;gt;" style="html=1;verticalAlign=bottom;labelBackgroundColor=none;endArrow=open;endFill=0;dashed=1;rounded=0;exitX=0.5;exitY=0;exitDx=0;exitDy=0;" edge="1" parent="1" source="0Z9W9yyYqLDDxR3RSJYj-49" target="0Z9W9yyYqLDDxR3RSJYj-7">
          <mxGeometry width="160" relative="1" as="geometry">
            <mxPoint x="440" y="430" as="sourcePoint" />
            <mxPoint x="600" y="430" as="targetPoint" />
          </mxGeometry>
        </mxCell>
        <mxCell id="0Z9W9yyYqLDDxR3RSJYj-52" value="" style="endArrow=classic;html=1;rounded=0;exitX=0.367;exitY=-0.183;exitDx=0;exitDy=0;exitPerimeter=0;entryX=0.989;entryY=0.75;entryDx=0;entryDy=0;entryPerimeter=0;" edge="1" parent="1" source="0Z9W9yyYqLDDxR3RSJYj-2" target="0Z9W9yyYqLDDxR3RSJYj-1">
          <mxGeometry width="50" height="50" relative="1" as="geometry">
            <mxPoint x="230" y="450" as="sourcePoint" />
            <mxPoint x="280" y="400" as="targetPoint" />
          </mxGeometry>
        </mxCell>
        <mxCell id="0Z9W9yyYqLDDxR3RSJYj-53" value="" style="endArrow=none;html=1;rounded=0;entryX=0;entryY=0.5;entryDx=0;entryDy=0;" edge="1" parent="1" target="0Z9W9yyYqLDDxR3RSJYj-9">
          <mxGeometry width="50" height="50" relative="1" as="geometry">
            <mxPoint x="80" y="870" as="sourcePoint" />
            <mxPoint x="280" y="840" as="targetPoint" />
          </mxGeometry>
        </mxCell>
        <mxCell id="0Z9W9yyYqLDDxR3RSJYj-54" value="" style="endArrow=none;html=1;rounded=0;" edge="1" parent="1">
          <mxGeometry width="50" height="50" relative="1" as="geometry">
            <mxPoint x="90" y="880" as="sourcePoint" />
            <mxPoint x="390" y="850" as="targetPoint" />
          </mxGeometry>
        </mxCell>
        <mxCell id="0Z9W9yyYqLDDxR3RSJYj-55" value="" style="endArrow=none;html=1;rounded=0;exitX=1;exitY=0.5;exitDx=0;exitDy=0;entryX=0;entryY=0.5;entryDx=0;entryDy=0;entryPerimeter=0;" edge="1" parent="1" source="0Z9W9yyYqLDDxR3RSJYj-9" target="0Z9W9yyYqLDDxR3RSJYj-48">
          <mxGeometry width="50" height="50" relative="1" as="geometry">
            <mxPoint x="230" y="890" as="sourcePoint" />
            <mxPoint x="280" y="840" as="targetPoint" />
          </mxGeometry>
        </mxCell>
        <mxCell id="0Z9W9yyYqLDDxR3RSJYj-57" value="" style="endArrow=none;html=1;rounded=0;entryX=0.014;entryY=0.671;entryDx=0;entryDy=0;entryPerimeter=0;" edge="1" parent="1" target="0Z9W9yyYqLDDxR3RSJYj-4">
          <mxGeometry width="50" height="50" relative="1" as="geometry">
            <mxPoint x="200" y="240" as="sourcePoint" />
            <mxPoint x="420" y="540" as="targetPoint" />
          </mxGeometry>
        </mxCell>
        <mxCell id="0Z9W9yyYqLDDxR3RSJYj-58" value="" style="endArrow=none;html=1;rounded=0;entryX=0;entryY=0.5;entryDx=0;entryDy=0;" edge="1" parent="1" target="0Z9W9yyYqLDDxR3RSJYj-5">
          <mxGeometry width="50" height="50" relative="1" as="geometry">
            <mxPoint x="210" y="250" as="sourcePoint" />
            <mxPoint x="420" y="540" as="targetPoint" />
            <Array as="points" />
          </mxGeometry>
        </mxCell>
        <mxCell id="0Z9W9yyYqLDDxR3RSJYj-59" value="" style="endArrow=none;html=1;rounded=0;entryX=-0.008;entryY=0.379;entryDx=0;entryDy=0;entryPerimeter=0;" edge="1" parent="1" target="0Z9W9yyYqLDDxR3RSJYj-6">
          <mxGeometry width="50" height="50" relative="1" as="geometry">
            <mxPoint x="210" y="260" as="sourcePoint" />
            <mxPoint x="420" y="540" as="targetPoint" />
          </mxGeometry>
        </mxCell>
        <mxCell id="0Z9W9yyYqLDDxR3RSJYj-60" value="" style="endArrow=none;html=1;rounded=0;entryX=0;entryY=0.5;entryDx=0;entryDy=0;" edge="1" parent="1" target="0Z9W9yyYqLDDxR3RSJYj-7">
          <mxGeometry width="50" height="50" relative="1" as="geometry">
            <mxPoint x="210" y="270" as="sourcePoint" />
            <mxPoint x="420" y="540" as="targetPoint" />
          </mxGeometry>
        </mxCell>
        <mxCell id="0Z9W9yyYqLDDxR3RSJYj-61" value="" style="endArrow=none;html=1;rounded=0;entryX=0;entryY=0.5;entryDx=0;entryDy=0;" edge="1" parent="1" target="0Z9W9yyYqLDDxR3RSJYj-3">
          <mxGeometry width="50" height="50" relative="1" as="geometry">
            <mxPoint x="80" y="70" as="sourcePoint" />
            <mxPoint x="420" y="540" as="targetPoint" />
          </mxGeometry>
        </mxCell>
        <mxCell id="0Z9W9yyYqLDDxR3RSJYj-62" value="&lt;font style=&quot;font-size: 36px;&quot;&gt;s&#39;authentifier&lt;/font&gt;" style="text;strokeColor=none;align=center;fillColor=none;html=1;verticalAlign=middle;whiteSpace=wrap;rounded=0;" vertex="1" parent="1">
          <mxGeometry x="207.5" y="25" width="242.5" height="90" as="geometry" />
        </mxCell>
        <mxCell id="0Z9W9yyYqLDDxR3RSJYj-66" value="&lt;font style=&quot;font-size: 24px;&quot;&gt;s&#39;inscrire&lt;/font&gt;" style="text;strokeColor=none;align=center;fillColor=none;html=1;verticalAlign=middle;whiteSpace=wrap;rounded=0;" vertex="1" parent="1">
          <mxGeometry x="600" y="195" width="320" height="30" as="geometry" />
        </mxCell>
        <mxCell id="0Z9W9yyYqLDDxR3RSJYj-67" value="&lt;font style=&quot;font-size: 18px;&quot;&gt;reserver evenement mariage&lt;/font&gt;" style="text;strokeColor=none;align=center;fillColor=none;html=1;verticalAlign=middle;whiteSpace=wrap;rounded=0;" vertex="1" parent="1">
          <mxGeometry x="550" y="315" width="390" height="30" as="geometry" />
        </mxCell>
        <mxCell id="0Z9W9yyYqLDDxR3RSJYj-68" value="&lt;font style=&quot;font-size: 18px;&quot;&gt;consulter information divers&lt;/font&gt;" style="text;strokeColor=none;align=center;fillColor=none;html=1;verticalAlign=middle;whiteSpace=wrap;rounded=0;" vertex="1" parent="1">
          <mxGeometry x="600" y="425" width="370" height="30" as="geometry" />
        </mxCell>
        <mxCell id="0Z9W9yyYqLDDxR3RSJYj-69" value="&lt;font style=&quot;font-size: 18px;&quot;&gt;traiter&amp;nbsp; recommandation&lt;/font&gt;" style="text;strokeColor=none;align=center;fillColor=none;html=1;verticalAlign=middle;whiteSpace=wrap;rounded=0;" vertex="1" parent="1">
          <mxGeometry x="560" y="515" width="400" height="30" as="geometry" />
        </mxCell>
        <mxCell id="0Z9W9yyYqLDDxR3RSJYj-70" value="&lt;font style=&quot;font-size: 18px;&quot;&gt;accepter&lt;/font&gt;" style="text;strokeColor=none;align=center;fillColor=none;html=1;verticalAlign=middle;whiteSpace=wrap;rounded=0;" vertex="1" parent="1">
          <mxGeometry x="520" y="655" width="60" height="30" as="geometry" />
        </mxCell>
        <mxCell id="0Z9W9yyYqLDDxR3RSJYj-71" value="&lt;font style=&quot;font-size: 18px;&quot;&gt;refuser&lt;/font&gt;" style="text;strokeColor=none;align=center;fillColor=none;html=1;verticalAlign=middle;whiteSpace=wrap;rounded=0;" vertex="1" parent="1">
          <mxGeometry x="760" y="655" width="60" height="30" as="geometry" />
        </mxCell>
        <mxCell id="0Z9W9yyYqLDDxR3RSJYj-72" value="&lt;font style=&quot;font-size: 18px;&quot;&gt;MAJ BD&lt;/font&gt;" style="text;strokeColor=none;align=center;fillColor=none;html=1;verticalAlign=middle;whiteSpace=wrap;rounded=0;" vertex="1" parent="1">
          <mxGeometry x="960" y="645" width="90" height="30" as="geometry" />
        </mxCell>
        <mxCell id="0Z9W9yyYqLDDxR3RSJYj-73" value="&lt;font style=&quot;font-size: 18px;&quot;&gt;recommander evenement&lt;/font&gt;" style="text;strokeColor=none;align=center;fillColor=none;html=1;verticalAlign=middle;whiteSpace=wrap;rounded=0;" vertex="1" parent="1">
          <mxGeometry x="290" y="725" width="210" height="30" as="geometry" />
        </mxCell>
        <mxCell id="0Z9W9yyYqLDDxR3RSJYj-76" value="&lt;font style=&quot;font-size: 18px;&quot;&gt;troupe musicale&lt;/font&gt;" style="text;strokeColor=none;align=center;fillColor=none;html=1;verticalAlign=middle;whiteSpace=wrap;rounded=0;" vertex="1" parent="1">
          <mxGeometry x="195" y="1050" width="110" height="40" as="geometry" />
        </mxCell>
        <mxCell id="0Z9W9yyYqLDDxR3RSJYj-78" value="&lt;font style=&quot;font-size: 18px;&quot;&gt;salle des fetes&lt;/font&gt;" style="text;strokeColor=none;align=center;fillColor=none;html=1;verticalAlign=middle;whiteSpace=wrap;rounded=0;" vertex="1" parent="1">
          <mxGeometry x="480" y="1055" width="120" height="30" as="geometry" />
        </mxCell>
        <mxCell id="0Z9W9yyYqLDDxR3RSJYj-79" value="&lt;font style=&quot;font-size: 18px;&quot;&gt;centre esthetique&lt;/font&gt;" style="text;strokeColor=none;align=center;fillColor=none;html=1;verticalAlign=middle;whiteSpace=wrap;rounded=0;" vertex="1" parent="1">
          <mxGeometry x="760" y="1055" width="100" height="30" as="geometry" />
        </mxCell>
        <mxCell id="0Z9W9yyYqLDDxR3RSJYj-82" value="&lt;font style=&quot;font-size: 24px;&quot;&gt;ajouter&lt;/font&gt;" style="ellipse;whiteSpace=wrap;html=1;" vertex="1" parent="1">
          <mxGeometry x="-40" y="1130" width="120" height="80" as="geometry" />
        </mxCell>
        <mxCell id="0Z9W9yyYqLDDxR3RSJYj-83" value="&lt;font style=&quot;font-size: 24px;&quot;&gt;supprimer&lt;/font&gt;" style="ellipse;whiteSpace=wrap;html=1;" vertex="1" parent="1">
          <mxGeometry x="100" y="1130" width="120" height="80" as="geometry" />
        </mxCell>
        <mxCell id="0Z9W9yyYqLDDxR3RSJYj-85" value="&lt;font style=&quot;font-size: 24px;&quot;&gt;modifier&lt;/font&gt;" style="ellipse;whiteSpace=wrap;html=1;" vertex="1" parent="1">
          <mxGeometry x="240" y="1130" width="120" height="80" as="geometry" />
        </mxCell>
        <mxCell id="0Z9W9yyYqLDDxR3RSJYj-86" value="&lt;font style=&quot;font-size: 24px;&quot;&gt;ajouter&lt;/font&gt;" style="ellipse;whiteSpace=wrap;html=1;" vertex="1" parent="1">
          <mxGeometry x="300" y="1300" width="120" height="80" as="geometry" />
        </mxCell>
        <mxCell id="0Z9W9yyYqLDDxR3RSJYj-87" value="&lt;font style=&quot;font-size: 24px;&quot;&gt;supprimer&lt;/font&gt;" style="ellipse;whiteSpace=wrap;html=1;" vertex="1" parent="1">
          <mxGeometry x="450" y="1300" width="120" height="80" as="geometry" />
        </mxCell>
        <mxCell id="0Z9W9yyYqLDDxR3RSJYj-88" value="&lt;font style=&quot;font-size: 24px;&quot;&gt;modifier&lt;/font&gt;" style="ellipse;whiteSpace=wrap;html=1;" vertex="1" parent="1">
          <mxGeometry x="590" y="1300" width="120" height="80" as="geometry" />
        </mxCell>
        <mxCell id="0Z9W9yyYqLDDxR3RSJYj-94" value="&lt;font style=&quot;font-size: 24px;&quot;&gt;ajouter&lt;/font&gt;" style="ellipse;whiteSpace=wrap;html=1;" vertex="1" parent="1">
          <mxGeometry x="610" y="1150" width="120" height="80" as="geometry" />
        </mxCell>
        <mxCell id="0Z9W9yyYqLDDxR3RSJYj-95" value="&lt;font style=&quot;font-size: 24px;&quot;&gt;supprimer&lt;/font&gt;" style="ellipse;whiteSpace=wrap;html=1;" vertex="1" parent="1">
          <mxGeometry x="770" y="1150" width="120" height="80" as="geometry" />
        </mxCell>
        <mxCell id="0Z9W9yyYqLDDxR3RSJYj-96" value="&lt;font style=&quot;font-size: 24px;&quot;&gt;modifier&lt;/font&gt;" style="ellipse;whiteSpace=wrap;html=1;" vertex="1" parent="1">
          <mxGeometry x="930" y="1150" width="120" height="80" as="geometry" />
        </mxCell>
        <mxCell id="0Z9W9yyYqLDDxR3RSJYj-97" value="&lt;font style=&quot;font-size: 24px;&quot;&gt;ajouter&lt;/font&gt;" style="ellipse;whiteSpace=wrap;html=1;" vertex="1" parent="1">
          <mxGeometry x="1000" y="1290" width="120" height="80" as="geometry" />
        </mxCell>
        <mxCell id="0Z9W9yyYqLDDxR3RSJYj-98" value="&lt;font style=&quot;font-size: 24px;&quot;&gt;supprimer&lt;/font&gt;" style="ellipse;whiteSpace=wrap;html=1;" vertex="1" parent="1">
          <mxGeometry x="1160" y="1290" width="120" height="80" as="geometry" />
        </mxCell>
        <mxCell id="0Z9W9yyYqLDDxR3RSJYj-99" value="&lt;font style=&quot;font-size: 24px;&quot;&gt;modifier&lt;/font&gt;" style="ellipse;whiteSpace=wrap;html=1;" vertex="1" parent="1">
          <mxGeometry x="1320" y="1290" width="120" height="80" as="geometry" />
        </mxCell>
        <mxCell id="0Z9W9yyYqLDDxR3RSJYj-100" value="" style="endArrow=classic;html=1;rounded=0;exitX=0.5;exitY=0;exitDx=0;exitDy=0;entryX=0;entryY=0.75;entryDx=0;entryDy=0;" edge="1" parent="1" source="0Z9W9yyYqLDDxR3RSJYj-82" target="0Z9W9yyYqLDDxR3RSJYj-76">
          <mxGeometry width="50" height="50" relative="1" as="geometry">
            <mxPoint x="590" y="1230" as="sourcePoint" />
            <mxPoint x="640" y="1180" as="targetPoint" />
          </mxGeometry>
        </mxCell>
        <mxCell id="0Z9W9yyYqLDDxR3RSJYj-101" value="" style="endArrow=classic;html=1;rounded=0;exitX=0.5;exitY=0;exitDx=0;exitDy=0;entryX=0;entryY=1;entryDx=0;entryDy=0;" edge="1" parent="1" source="0Z9W9yyYqLDDxR3RSJYj-83" target="0Z9W9yyYqLDDxR3RSJYj-13">
          <mxGeometry width="50" height="50" relative="1" as="geometry">
            <mxPoint x="590" y="1230" as="sourcePoint" />
            <mxPoint x="640" y="1180" as="targetPoint" />
          </mxGeometry>
        </mxCell>
        <mxCell id="0Z9W9yyYqLDDxR3RSJYj-102" value="" style="endArrow=classic;html=1;rounded=0;exitX=0.5;exitY=0;exitDx=0;exitDy=0;entryX=1;entryY=1;entryDx=0;entryDy=0;" edge="1" parent="1" source="0Z9W9yyYqLDDxR3RSJYj-85" target="0Z9W9yyYqLDDxR3RSJYj-13">
          <mxGeometry width="50" height="50" relative="1" as="geometry">
            <mxPoint x="590" y="1230" as="sourcePoint" />
            <mxPoint x="640" y="1180" as="targetPoint" />
          </mxGeometry>
        </mxCell>
        <mxCell id="0Z9W9yyYqLDDxR3RSJYj-103" value="" style="endArrow=classic;html=1;rounded=0;exitX=0.5;exitY=0;exitDx=0;exitDy=0;entryX=0;entryY=1;entryDx=0;entryDy=0;" edge="1" parent="1" source="0Z9W9yyYqLDDxR3RSJYj-86" target="0Z9W9yyYqLDDxR3RSJYj-15">
          <mxGeometry width="50" height="50" relative="1" as="geometry">
            <mxPoint x="590" y="1230" as="sourcePoint" />
            <mxPoint x="640" y="1180" as="targetPoint" />
          </mxGeometry>
        </mxCell>
        <mxCell id="0Z9W9yyYqLDDxR3RSJYj-104" value="" style="endArrow=classic;html=1;rounded=0;exitX=0.5;exitY=0;exitDx=0;exitDy=0;entryX=0.417;entryY=0.875;entryDx=0;entryDy=0;entryPerimeter=0;" edge="1" parent="1" source="0Z9W9yyYqLDDxR3RSJYj-87" target="0Z9W9yyYqLDDxR3RSJYj-15">
          <mxGeometry width="50" height="50" relative="1" as="geometry">
            <mxPoint x="590" y="1230" as="sourcePoint" />
            <mxPoint x="530" y="1120" as="targetPoint" />
          </mxGeometry>
        </mxCell>
        <mxCell id="0Z9W9yyYqLDDxR3RSJYj-105" value="" style="endArrow=classic;html=1;rounded=0;exitX=0;exitY=0;exitDx=0;exitDy=0;entryX=0.6;entryY=1.037;entryDx=0;entryDy=0;entryPerimeter=0;" edge="1" parent="1" source="0Z9W9yyYqLDDxR3RSJYj-88" target="0Z9W9yyYqLDDxR3RSJYj-15">
          <mxGeometry width="50" height="50" relative="1" as="geometry">
            <mxPoint x="590" y="1230" as="sourcePoint" />
            <mxPoint x="640" y="1180" as="targetPoint" />
          </mxGeometry>
        </mxCell>
        <mxCell id="0Z9W9yyYqLDDxR3RSJYj-107" value="" style="endArrow=classic;html=1;rounded=0;exitX=0.5;exitY=0;exitDx=0;exitDy=0;entryX=0.039;entryY=0.838;entryDx=0;entryDy=0;entryPerimeter=0;" edge="1" parent="1" source="0Z9W9yyYqLDDxR3RSJYj-94" target="0Z9W9yyYqLDDxR3RSJYj-16">
          <mxGeometry width="50" height="50" relative="1" as="geometry">
            <mxPoint x="900" y="1260" as="sourcePoint" />
            <mxPoint x="950" y="1210" as="targetPoint" />
          </mxGeometry>
        </mxCell>
        <mxCell id="0Z9W9yyYqLDDxR3RSJYj-109" value="" style="endArrow=classic;html=1;rounded=0;exitX=0.5;exitY=0;exitDx=0;exitDy=0;entryX=0.5;entryY=1;entryDx=0;entryDy=0;" edge="1" parent="1" source="0Z9W9yyYqLDDxR3RSJYj-95" target="0Z9W9yyYqLDDxR3RSJYj-16">
          <mxGeometry width="50" height="50" relative="1" as="geometry">
            <mxPoint x="900" y="1260" as="sourcePoint" />
            <mxPoint x="950" y="1210" as="targetPoint" />
          </mxGeometry>
        </mxCell>
        <mxCell id="0Z9W9yyYqLDDxR3RSJYj-110" value="" style="endArrow=classic;html=1;rounded=0;exitX=0.5;exitY=0;exitDx=0;exitDy=0;entryX=1;entryY=1;entryDx=0;entryDy=0;" edge="1" parent="1" source="0Z9W9yyYqLDDxR3RSJYj-96" target="0Z9W9yyYqLDDxR3RSJYj-16">
          <mxGeometry width="50" height="50" relative="1" as="geometry">
            <mxPoint x="900" y="1260" as="sourcePoint" />
            <mxPoint x="950" y="1210" as="targetPoint" />
          </mxGeometry>
        </mxCell>
        <mxCell id="0Z9W9yyYqLDDxR3RSJYj-111" value="" style="endArrow=classic;html=1;rounded=0;exitX=0.5;exitY=0;exitDx=0;exitDy=0;entryX=0.317;entryY=0.963;entryDx=0;entryDy=0;entryPerimeter=0;" edge="1" parent="1" source="0Z9W9yyYqLDDxR3RSJYj-97" target="0Z9W9yyYqLDDxR3RSJYj-17">
          <mxGeometry width="50" height="50" relative="1" as="geometry">
            <mxPoint x="900" y="1260" as="sourcePoint" />
            <mxPoint x="950" y="1210" as="targetPoint" />
          </mxGeometry>
        </mxCell>
        <mxCell id="0Z9W9yyYqLDDxR3RSJYj-112" value="" style="endArrow=classic;html=1;rounded=0;exitX=0.411;exitY=-0.046;exitDx=0;exitDy=0;exitPerimeter=0;entryX=0.5;entryY=1;entryDx=0;entryDy=0;" edge="1" parent="1" source="0Z9W9yyYqLDDxR3RSJYj-98" target="0Z9W9yyYqLDDxR3RSJYj-17">
          <mxGeometry width="50" height="50" relative="1" as="geometry">
            <mxPoint x="900" y="1260" as="sourcePoint" />
            <mxPoint x="950" y="1210" as="targetPoint" />
          </mxGeometry>
        </mxCell>
        <mxCell id="0Z9W9yyYqLDDxR3RSJYj-113" value="" style="endArrow=classic;html=1;rounded=0;exitX=0.5;exitY=0;exitDx=0;exitDy=0;entryX=0.694;entryY=0.963;entryDx=0;entryDy=0;entryPerimeter=0;" edge="1" parent="1" source="0Z9W9yyYqLDDxR3RSJYj-99" target="0Z9W9yyYqLDDxR3RSJYj-17">
          <mxGeometry width="50" height="50" relative="1" as="geometry">
            <mxPoint x="900" y="1260" as="sourcePoint" />
            <mxPoint x="950" y="1210" as="targetPoint" />
          </mxGeometry>
        </mxCell>
        <mxCell id="0Z9W9yyYqLDDxR3RSJYj-119" value="" style="endArrow=classic;html=1;rounded=0;" edge="1" parent="1">
          <mxGeometry width="50" height="50" relative="1" as="geometry">
            <mxPoint x="50" y="810" as="sourcePoint" />
            <mxPoint x="40" y="230" as="targetPoint" />
          </mxGeometry>
        </mxCell>
      </root>
    </mxGraphModel>
  </diagram>
</mxfile>
